<?xml version="1.0" encoding="UTF-8"?>
<svg id="Laag_1" xmlns="http://www.w3.org/2000/svg" viewBox="0 0 512 512">
  <defs>
    <style>
      .cls-1 {
        fill: #fff;
      }
    </style>
  </defs>
  <g>
    <path class="cls-1" d="M495.06,183.53c16.19,3.07,15.5,15.27,15.48,27.68-.19,82.1-.85,164.2.22,246.29.3,23.29-8.2,30.49-30.61,30.42-149.45-.5-298.9-.32-448.35.28-22.31.09-32.5-7.25-30.24-30.79,2.02-21.04,1.6-42.31,2.25-63.46,27.03-13.86,30.21-41.47,35.78-66.3,8.88-39.6-9.68-91.03-35.57-106.56-4.89-20.76-5.57-38.73,24.15-36.58,39.99,34.97,53.47,79.32,45.95,130.93-4.17,28.6-17.83,54.05-27.43,80.85-2.33,6.5-7.99,14.69,1.09,19.34,6.92,3.55,11.55-4,15.73-8.57,29.58-32.4,45.54-70.75,49.32-114.32,3.17-36.58-8.94-70.5-20.63-107.53,13.14,0,23.93.04,34.72,0,122.71-.54,245.43-1.1,368.14-1.66ZM208.5,402.49c39.6-22.71,76.77-44.02,117.48-67.37-41.6-23.83-78.5-44.97-117.48-67.3v134.67Z"/>
    <path class="cls-1" d="M252.47,135.91c-56.15.04-112.3.02-168.45.06-12.32,0-26.06.61-25.81-16.64.25-17.23,14.54-16.25,26.46-16.27,114.14-.13,228.28-.08,342.42-.1,12.45,0,26.32.22,26.02,16.87-.3,16.66-14.44,16.05-26.66,16.04-57.99-.01-115.98,0-173.97.03Z"/>
    <path class="cls-1" d="M495.06,183.53c-122.71.55-245.43,1.11-368.14,1.66-10.79.05-21.58,0-34.72,0,11.69,37.03,23.8,70.95,20.63,107.53-3.78,43.57-19.74,81.93-49.32,114.32-4.18,4.58-8.81,12.12-15.73,8.57-9.07-4.65-3.41-12.83-1.09-19.34,9.6-26.8,23.26-52.25,27.43-80.85,7.52-51.61-5.95-95.96-45.95-130.93,155.64-5.45,311.26-4.97,466.89-.97Z"/>
    <path class="cls-1" d="M255.54,56.67c-36.88,0-73.75.03-110.63-.02-11.29-.02-24.09.36-24.53-15.2-.48-17.06,12.95-17.58,25.38-17.6,73.75-.06,147.51-.03,221.26-.02,11.57,0,23.8.62,24.32,15.79.59,17.42-12.66,17.03-25.17,16.98-36.88-.16-73.75-.06-110.63-.06v.12Z"/>
    <path class="cls-1" d="M4.01,221.08c25.9,15.53,44.45,66.96,35.57,106.56-5.57,24.83-8.75,52.43-35.78,66.3-2.44-57.64-3.26-115.26.21-172.86Z"/>
  </g>
  <rect class="cls-1" y="201.46" width="21.76" height="269.66"/>
</svg>