<?xml version="1.0" encoding="UTF-8"?>
<svg id="Laag_1" xmlns="http://www.w3.org/2000/svg" viewBox="0 0 512 512">
  <defs>
    <style>
      .cls-1 {
        fill: #fff;
      }
    </style>
  </defs>
  <path class="cls-1" d="M499.33,3.15c3.28,1.37,6.55,2.74,9.81,4.08-3.21,44.29-2.76,88.62-.24,132.94-.6,5.41-1.2,10.83-1.8,16.21-31.12,29.1-37.1,68.4-41.65,107.46-6.56,56.25,15.13,105.46,42.28,152.8-3.07,16.25-16.18,9.64-24.82,9.68-124.35.49-248.7.26-373.05.57-14.36.04-25.14.97-24.99-19.74.9-130.5.55-261,.8-391.51,0-3.88,2.06-7.76,3.13-11.61,67.41.5,134.85,1.46,202.28,1.3,69.42-.16,138.83-1.41,208.25-2.18ZM220.03,303.48c52.98-30.64,101.89-58.94,153.31-88.68-53.03-30.57-101.95-58.76-153.31-88.36v177.04Z"/>
  <path class="cls-1" d="M211.24,511.42c-61.66,0-123.34-1.04-184.96.55-22.31.58-26.84-6.72-26.68-27.63C.55,361.04.23,237.73-.2,114.43c-.05-15.04.46-24.8,20.23-24.64,20.66.16,16.65,12.75,16.65,24.64-.03,109.95.9,219.91-.75,329.83-.4,26.42,7.45,31.73,32.47,31.4,109.94-1.44,219.91-.69,329.87-.46,11.03.02,25.07-5.57,25.42,15.69.32,19.27-8.55,21.16-24.4,20.97-62.68-.73-125.37-.3-188.05-.3v-.14Z"/>
  <path class="cls-1" d="M507.74,416.64c-27.15-47.34-48.84-96.55-42.28-152.8,4.55-39.06,10.54-78.36,41.65-107.46,5.34,86.76,4.18,173.51.63,260.26Z"/>
  <path class="cls-1" d="M499.33,3.15c-69.42.77-138.83,2.02-208.25,2.18-67.44.16-134.87-.81-202.28-1.3,12.56-6.8,26.07-2.93,39.03-2.97,113.74-.38,227.48-.28,341.22-.12,10.1.01,20.19,1.44,30.29,2.21Z"/>
  <path class="cls-1" d="M508.91,140.17c-2.53-44.33-2.97-88.65.24-132.94,3.93,44.34,4.84,88.64-.24,132.94Z"/>
</svg>