<?xml version="1.0" encoding="UTF-8"?>
<svg id="Laag_1" xmlns="http://www.w3.org/2000/svg" viewBox="0 0 512 512">
  <defs>
    <style>
      .cls-1 {
        fill: #fff;
      }
    </style>
  </defs>
  <path class="cls-1" d="M1.09,489c8.04-114.66,49.45-211.57,146.11-278.53,44.56-30.87,94.92-46.96,148.7-49.8,19.85-1.05,24.51-7.68,23.81-26.11-1.33-34.76-.38-69.61-.38-111.56,47.91,54.59,90.99,103.58,133.95,152.68,16.78,19.18,32.57,39.28,50.18,57.64,9.38,9.78,10.21,15.75.84,26.32-60.35,68.06-119.98,136.76-184.84,210.97,0-43.02-.79-79.56.34-116.05.55-17.6-3.3-23.64-22.76-22.29-54.3,3.77-106.92,13.88-157.24,34.59-59.72,24.58-107.22,63.47-138.7,122.14Z"/>
</svg>