<?xml version="1.0" encoding="UTF-8"?>
<svg id="Laag_1" xmlns="http://www.w3.org/2000/svg" viewBox="0 0 512 512">
  <defs>
    <style>
      .cls-1 {
        fill: #fff;
      }
    </style>
  </defs>
  <path class="cls-1" d="M511.96,257.5c-2.48,144.5-118.4,256.56-262.61,253.86C106.63,508.69-3.14,391.42.07,245.04,3.07,107.74,121.66-1.94,264.34.63c136.03,2.45,249.97,120.65,247.63,256.87ZM304.22,206.01c-.11,0-.22,0-.33,0,0-15.73.29-31.47-.06-47.2-.66-29.6-20.45-50.24-47.94-50.47-26.24-.22-47.06,19.46-47.99,47.86-1.1,33.79-1.13,67.66-.16,101.45.86,29.78,22.26,50.26,49.09,49.31,27.67-.98,46.74-21.49,47.33-51.4.33-16.51.06-33.04.06-49.56ZM257.71,404.22c17.61,3.95,16.27-8.59,14.97-19.93-2.14-18.6,2.95-28.3,23.19-35.32,37.57-13.04,59.35-42.65,65.68-82.45.87-5.46,5.12-13.36-4.56-15.43-10.85-2.32-9.84,6.11-11.23,13.16-9.28,47.15-45.57,78.31-90.1,77.88-45.91-.44-80.95-30.82-89.6-77.99-1.29-7.05-.67-15.23-11.54-13.2-10.37,1.94-5.57,10.28-4.77,15.21,6.6,40.54,28.7,71.15,67.48,83.59,22.65,7.27,27.75,18.5,24.97,38.46-1.6,11.47.63,19.1,15.52,16.04Z"/>
</svg>