<?xml version="1.0" encoding="UTF-8"?>
<svg id="Laag_1" xmlns="http://www.w3.org/2000/svg" viewBox="0 0 512 512">
  <defs>
    <style>
      .cls-1 {
        fill: #fff;
      }
    </style>
  </defs>
  <path class="cls-1" d="M296.21,8.32c64.44,0,128.89.7,193.31-.44,18.8-.33,23.82,5.6,23.64,23.78-.82,81.9-.95,163.81.1,245.7.25,19.26-6.32,26.26-24.17,22.68-78.03-15.64-131.52,18.46-175.49,80.24-25.77,36.2-58.97,67.15-89.08,100.23-22.32,24.53-49.52,30.66-72.64,15.08-26.76-18.03-25.53-42.57-14.39-69.55,14.56-35.25,26.93-71.43,42.01-106.44,8.48-19.69,6.53-27.32-16.93-26.39-34.89,1.38-69.9.93-104.83.19-43.36-.91-66.61-29.59-56.78-71.71,12.9-55.23,27.25-110.14,41.85-164.95,9.54-35.84,26.36-48.07,63.44-48.16,63.32-.17,126.64-.05,189.95-.05v-.21Z"/>
</svg>