<?xml version="1.0" encoding="UTF-8"?>
<svg id="Laag_1" xmlns="http://www.w3.org/2000/svg" viewBox="0 0 512 512">
  <defs>
    <style>
      .cls-1 {
        fill: #fff;
      }
    </style>
  </defs>
  <path class="cls-1" d="M-.44,95.36c.01-24.61,1.31-49.31-.42-73.8C-2.16,3.17,4.75-.33,21.53.02c50.1,1.05,100.24.76,150.36.12,13.78-.18,21.81,1.92,19.31,18.26-1.27,8.32-.89,17.08.04,25.5,1.76,16-4.26,21.81-20.67,20.97-27.38-1.39-54.89.02-82.28-1.31-19.74-.96-26.1,7.42-25.19,26.1,1.28,26.43.15,52.98,1.77,79.37,1.03,16.77-2.86,25.2-21.4,22.48-8.34-1.22-17.1-.98-25.51.01-15.58,1.85-19.34-4.98-18.72-19.54,1.1-25.5.31-51.08.32-76.62Z"/>
  <path class="cls-1" d="M512.34,96.55c0,24.59-1.49,49.3.48,73.72,1.52,18.9-5.91,21.68-22.41,21.49-41.92-.47-41.24.28-42.18-41.39-.63-27.99,12.67-65.3-5.76-81.24-15.92-13.77-52.25-3.95-79.56-4.55-1.89-.04-3.82.25-5.67-.04-11.62-1.85-29.75,6.53-33.69-5.11-5.46-16.13-2.65-35.36-1.8-53.18.34-7.08,8.1-5.74,13.72-5.74,53.9,0,107.81.2,161.7-.47,13.2-.16,15.84,5.6,15.62,17.06-.52,26.48-.16,52.97-.16,79.46-.1,0-.19,0-.29,0Z"/>
  <path class="cls-1" d="M95.61,511.33c-25.58-.03-51.19-.73-76.73.25-14.07.54-20.1-2.36-19.79-18.33,1.02-51.13,1.07-102.32-.02-153.45-.36-16.92,5.67-21.73,21.17-19.82,7.47.92,15.31,1.17,22.68-.06,18.25-3.02,22.65,4.73,21.85,21.92-1.35,29.3.29,58.74-.69,88.07-.46,13.95,4.24,17.87,17.8,17.43,29.34-.95,58.76.44,88.09-.65,15.4-.57,23.36,3.02,21.15,20.01-.97,7.45-.74,15.19-.02,22.7,1.56,16.28-3.02,23.83-21.64,22.4-24.49-1.87-49.23-.46-73.86-.49Z"/>
  <path class="cls-1" d="M511.6,417.14c0,24.62-1.76,49.41.59,73.8,1.68,17.37-3.73,21.1-19.58,20.86-49.2-.74-98.45-1.19-147.63.16-18.2.5-26.92-3.49-24.15-22.88.8-5.58.83-11.48,0-17.04-2.91-19.16,3.28-27.03,24.15-25.5,26.43,1.94,53.21-.97,79.63.98,20.99,1.55,25.46-6.37,24.31-25.57-1.64-27.42.23-55.02-.71-82.51-.48-13.88,1.89-21.7,18.12-19.33,8.35,1.22,17.13.89,25.57-.06,15.73-1.78,21.86,3.63,21.02,20.25-1.3,25.55-.34,51.21-.34,76.83h-.98Z"/>
</svg>