<?xml version="1.0" encoding="UTF-8"?>
<svg id="Laag_1" xmlns="http://www.w3.org/2000/svg" viewBox="0 0 512 512">
  <defs>
    <style>
      .cls-1 {
        fill: #fff;
      }
    </style>
  </defs>
  <path class="cls-1" d="M65.42,144.95c28.68,0,53.69.59,78.66-.24,12.82-.43,21.05-.11,20.57,16.87-.42,14.5-6.44,16.74-18.72,16.56-38.34-.56-76.71-.88-115.04.01-14.26.33-17.46-5.36-17.3-18.05.5-38.34.66-76.7-.07-115.03-.26-13.35,3.96-17.5,17.44-17.99,15.48-.56,16.29,7.07,15.89,18.72-.59,17.48-.15,35-.15,56.39,18.63-17.32,33.57-33.15,50.43-46.57,89.62-71.37,217.07-74.23,307.76-7.59,95.45,70.13,131.49,189.91,90.13,299.5-40.94,108.48-148.84,174.51-266.72,163.21C116.75,500.06,22.94,412.37,3.22,300.21c-1.29-7.35-2.12-14.83-2.5-22.29-.53-10.68-4.41-21.97,14.43-22.83,16.77-.76,17.41,7.37,18.85,19.78,10.94,94.24,60.85,159.15,149.87,191.76,108.35,39.68,228.68-14.69,276.6-123.16,45.16-102.23,2.76-227.77-95.03-281.34C261.78,5.36,133.23,36.03,70.5,132.58c-1.48,2.27-2.13,5.08-5.08,12.37Z"/>
  <path class="cls-1" d="M211.34,208.7c.02-16.81,1.8-33.85-.4-50.36-3.13-23.49,8.57-25.57,27.36-25.26,14.04.23,17.38,5.25,17.12,17.88-.59,28.93,1.09,57.97-.65,86.81-1.25,20.63,5.39,35.32,20.5,48.9,20.79,18.69,39.29,39.93,59.9,58.84,11.69,10.73,12.63,18.32-.08,28.54-9.86,7.92-16.01,20.69-30.82,4.57-26.49-28.83-54.77-56.04-82.84-83.37-8.25-8.03-10.31-17.06-10.18-27.72.24-19.61.07-39.22.09-58.82Z"/>
</svg>