<?xml version="1.0" encoding="UTF-8"?>
<svg id="Laag_1" xmlns="http://www.w3.org/2000/svg" viewBox="0 0 512 512">
  <defs>
    <style>
      .cls-1 {
        fill: #fff;
      }
    </style>
  </defs>
  <path class="cls-1" d="M501.92,173.82c1.15,25.6-12.42,34.82-27.01,44.06-38.7,24.51-38.41,50.59.36,75.72,30.01,19.45,33.99,34.22,16.96,64.91-10.12,18.24-20.56,36.31-31.15,54.29-14.13,24-33.13,29.06-58.32,16.38-49.19-24.77-67.69-13.5-70.16,41.99-1.19,26.64-14.96,40.05-41.28,40.5-21.95.38-43.91.5-65.86.06-32.5-.64-44.75-12.95-46.37-45.54-2.4-48.33-24.01-61.21-66.11-39.4-31.32,16.23-46.49,12.08-64.71-18.19-10.75-17.86-21.53-35.73-31.4-54.07-13.02-24.18-7.87-43.5,15.84-58.75,44.99-28.93,45-52.58.33-80.1-23.9-14.72-29.61-33.92-16.23-58.28,11.05-20.12,22.85-39.83,34.58-59.57,14.42-24.27,33.92-28,58.58-15.27,46.79,24.14,66.24,12.71,69.33-40.34C180.88,14.84,193.28-.59,222.28.02c21.94.46,43.91,0,65.86.35,31.81.5,42.61,11.06,44.6,42.96,3.2,51.22,22.66,62.8,68.1,40.52,30.01-14.71,46.4-10.75,62.12,18.06,13.85,25.39,32.97,48.26,38.96,71.91ZM256.38,188.75c-35.74-.84-68.19,31.24-68,67.24.18,34.49,30.84,65.46,65.86,66.53,36.9,1.13,68.08-28.77,68.75-65.92.67-37.18-28.56-66.96-66.61-67.85Z"/>
</svg>