<?xml version="1.0" encoding="UTF-8"?>
<svg id="Laag_1" xmlns="http://www.w3.org/2000/svg" viewBox="0 0 512 512">
  <defs>
    <style>
      .cls-1 {
        fill: #fff;
      }
    </style>
  </defs>
  <path class="cls-1" d="M509.94,311.95c.71,61.58,1.09,123.16,2.37,184.72.33,15.88-8.88,15.25-19.74,15.18-42.12-.28-84.23-.25-126.31-.33.2-1.02.47-2.04.5-3.07.42-15.1,30.9-23.51,14.87-37.62-10.61-9.34-20.83,13.86-31.13,22.23-14.96,12.16-27.44,8.15-38.06-3.46-11.58-12.66-10.62-26.05,4.87-43.49,2.51,13.53,3.1,20.67,5.28,27.28,1.95,5.92,9.9,7.94,11.59,3.15,5.15-14.62,7.74-32-1.47-44.39-7.46-10.04-20.99-4.56-30.27,3.51-15.49,13.47-22.19,29.53-13.28,49.66,3.7,8.36,10.23,15.81,8.41,25.96-14.1-.15-28.19-.29-42.26-.43.48-7.49,2.57-17.74-8.01-17.67-7.56.05-7.59,9.61-7.21,16.51-75.33.69-150.66,1.14-225.98,2.31-14.01.22-14.41-7.62-14.41-17.62.05-159.04.15-318.08-.16-477.12C-.5,3.3,5.43-.03,18.14,0c159.01.35,318.03.46,477.05.21,13.77-.02,17.47,5.25,17.28,18.25-1.07,74.26-1.49,148.53-2.12,222.77-32.81,9.2-45.96,40.48-68.02,61.65-7.25,6.96-.4,18.86,4.87,25.45,11.46,14.32,25.12,26.89,38.02,40.05,2.82,2.87,6.48,5.82,10.34,1.98,3.24-3.22,3.09-7.73.34-11.19-3.81-4.79-8.73-8.72-12.41-13.59-10.24-13.58-35.29-24.63-17.63-45.22,16.51-19.26,27.02,7.92,41.03,11.78.93.26,2.04-.1,3.06-.17ZM166.63,366.35c66.04-38.27,127.5-73.89,191.83-111.17-65.75-37.7-127.54-73.13-191.83-109.99v221.16ZM466.29,403.45c-10.86-19.22-24.18-32.83-40.17-43.36-18.41-12.11-37.5-12.54-53.21,4.78-16.37,18.05-15.6,38.59-.11,55.94,13.86,15.53,31.3,27.68,54.37,16.85,6.38-2.99,15.29-6.27,12.68-14.89-2.92-9.65-11.35-5.8-18.28-3.44-17.04,5.81-30.91,1.74-39.21-14.7-5.95-11.79-2.44-21.8,8.53-29.48,16.9-11.83,28.68-1.42,41.13,8.46,9.48,7.53,14.1,23.41,34.26,19.83Z"/>
  <path class="cls-1" d="M297.56,511.28c1.82-10.15-4.71-17.6-8.41-25.96-8.91-20.14-2.21-36.19,13.28-49.66,9.28-8.07,22.8-13.55,30.27-3.51,9.21,12.39,6.62,29.78,1.47,44.39-1.68,4.78-9.64,2.77-11.59-3.15-2.18-6.61-2.77-13.75-5.28-27.28-15.48,17.44-16.44,30.83-4.87,43.49,10.62,11.61,23.1,15.62,38.06,3.46,10.3-8.37,20.52-31.57,31.13-22.23,16.03,14.11-14.45,22.53-14.87,37.62-.03,1.03-.3,2.04-.5,3.07-22.93-.08-45.81-.16-68.7-.25Z"/>
  <path class="cls-1" d="M509.94,311.95c-1.02.07-2.13.43-3.06.17-14.01-3.86-24.51-31.04-41.03-11.78-17.66,20.6,7.39,31.65,17.63,45.22,3.68,4.87,8.59,8.8,12.41,13.59,2.76,3.47,2.9,7.97-.34,11.19-3.86,3.84-7.52.9-10.34-1.98-12.9-13.15-26.56-25.72-38.02-40.05-5.27-6.58-12.12-18.49-4.87-25.45,22.05-21.17,35.21-52.45,68.02-61.65-8.83,23.54,5.61,47.19-.4,70.72Z"/>
  <path class="cls-1" d="M240.08,509.69c-.38-6.9-.35-16.46,7.21-16.51,10.58-.07,8.49,10.18,8.01,17.67-5.1-.39-10.16-.77-15.22-1.16Z"/>
  <path class="cls-1" d="M466.29,403.45c-20.17,3.57-24.78-12.3-34.26-19.83-12.45-9.89-24.22-20.29-41.13-8.46-10.98,7.68-14.49,17.7-8.53,29.48,8.3,16.44,22.17,20.51,39.21,14.7,6.93-2.36,15.36-6.21,18.28,3.44,2.61,8.63-6.3,11.9-12.68,14.89-23.06,10.82-40.51-1.33-54.37-16.85-15.49-17.35-16.26-37.89.11-55.94,15.71-17.32,34.8-16.89,53.21-4.78,15.99,10.53,29.31,24.14,40.17,43.36Z"/>
</svg>