<?xml version="1.0" encoding="UTF-8"?>
<svg id="Laag_1" xmlns="http://www.w3.org/2000/svg" viewBox="0 0 512 512">
  <defs>
    <style>
      .cls-1 {
        fill: #fff;
      }
    </style>
  </defs>
  <path class="cls-1" d="M255.64,0c141.65-.52,256.06,114.03,256.06,256.4,0,139.58-116.82,256.61-255.12,255.59C115.74,510.96.56,396.56.3,257.46.04,115.02,113.58.52,255.64,0ZM233.85,135.33c-17.63-4.34-22.84,3.41-21.81,20.52,1.28,21.23,2.63,42.91-.18,63.84-5.95,44.23,7.12,78.54,43.07,105.85,18.28,13.88,33.92,31.57,49.27,48.85,10.55,11.87,16.88,11.02,27.73-.09,11.01-11.27,14.71-17.48.96-30.25-27.05-25.13-61.75-48.65-74.75-80.42-13.02-31.82-4.24-72.91-3.36-109.9.39-16.52-5.22-22.13-20.93-18.41Z"/>
</svg>