<?xml version="1.0" encoding="UTF-8"?>
<svg id="Laag_1" xmlns="http://www.w3.org/2000/svg" viewBox="0 0 512 512">
  <defs>
    <style>
      .cls-1 {
        fill: #fff;
      }
    </style>
  </defs>
  <path class="cls-1" d="M444.83,218.54c-39.48-.29-78.97-.06-121.62-.06,20-51.39,38.7-97.63,55.88-144.42,8.4-22.88,2.7-43.77-18.86-56.88-20.39-12.4-43.76-13.71-60.43,3.99-48.38,51.39-98,101.81-140.5,158.46-14.05,7.87-22.14,21.45-31.95,33.4-16.64.28-33.3.56-49.96.84-24.96-.37-50.08-4.91-74.72,2.9-.42,53.97-.84,107.95-1.27,161.9.66,20.19,1.32,40.36,1.98,60.57-.86,7.53-1.45,15.13-2.63,22.64-4.78,30.51,3.28,43,38.83,42.22,120.81-2.67,241.72-.88,362.6-1.08,42.27-.07,58.34-12.99,68.89-54.16,12.68-49.48,25.44-98.95,37.64-148.55,13.21-53.7-8.51-81.37-63.91-81.77Z"/>
</svg>