<?xml version="1.0" encoding="UTF-8"?>
<svg id="Laag_1" xmlns="http://www.w3.org/2000/svg" viewBox="0 0 512 512">
  <defs>
    <style>
      .cls-1 {
        fill: #fff;
      }
    </style>
  </defs>
  <path class="cls-1" d="M413.66,150.54c34.77-19.69,65.14-36.9,98.34-55.71v272.48c-32.4-18.43-63.21-35.95-98.21-55.86,0,38.13-.72,72.28.31,106.37.49,16.22-2.56,23.23-21.28,23.11-124.39-.85-248.8-.68-373.19-.12-14.9.07-20.06-3.68-19.61-19.15,2.36-80.73-.82-161.49,1.84-242.3.97-29.69,4.23-60.09.47-89.81-1.86-14.68.21-18.05,15.06-17.84,48.78.69,97.58-.3,146.37-.36,76.42-.1,152.84.44,229.25-.3,16.07-.16,22.42,3.82,20.98,20.73-1.49,17.6-.33,35.42-.33,58.75ZM180.06,189.8q0,41.61-38.45,41.6c-7.09,0-14.29.75-21.26-.16-21.8-2.84-17.17,13.2-16.12,24.06,1.03,10.61-9.52,28.78,15.19,28.07,19.32-.56,44.52-6.1,56.47,3.63,12.81,10.44,4.61,36.71,3.79,55.85-1.02,23.77,14.93,16.58,26.64,16.83,12.3.27,27.72,5.43,25.91-17.76-1.43-18.27-6.12-42.53,3.17-53.8,11.24-13.64,36.51-3.01,55.57-5.05,6.45-.69,14.1,2.6,17.56-7.25,9.52-27.15-2.19-44.3-30.92-44.31-45.47-.02-47.11-.09-45.16-45.46,1.12-25.98-6.57-32.56-32.3-31.88-33.98.9-14.19,25.01-20.08,35.62Z"/>
</svg>