<?xml version="1.0" encoding="UTF-8"?>
<svg id="Laag_1" xmlns="http://www.w3.org/2000/svg" viewBox="0 0 512 512">
  <defs>
    <style>
      .cls-1 {
        fill: #fff;
      }
    </style>
  </defs>
  <path class="cls-1" d="M255.91,458.56c-66.25.03-132.51.44-198.76-.13-37.13-.32-55.2-18.67-55.33-55.58-.32-97.16-.34-194.33,0-291.49.14-37.99,19.19-57.65,56.77-57.77,131.61-.41,263.23-.47,394.84.02,37.86.14,56.57,19.97,56.68,57.84.28,96.28.42,192.56.16,288.84-.11,40.5-17.77,57.96-58.25,58.15-65.37.3-130.74.08-196.11.11ZM253.98,403.96v.1c60.09,0,120.19-.38,180.27.27,14.48.16,19.24-3.65,19.1-18.97-.82-85.7-.71-171.42-.18-257.13.09-14.34-3.15-20.06-18.83-19.98-118.38.66-236.76.73-355.14.25-15.95-.06-20.88,4.28-20.7,20.82.9,84.82.99,169.66,0,254.47-.19,16.78,4.7,20.69,20.51,20.47,58.31-.81,116.65-.32,174.97-.32Z"/>
  <path class="cls-1" d="M321.76,227.5c26.51,0,53.04.57,79.52-.23,13.17-.4,18.93,2.67,18.51,17.4-1,35.31-.58,70.68-.15,106.02.15,12.32-1.62,19.39-17.06,19.15-53.89-.84-107.81-.57-161.71.05-12.63.14-16.92-3.68-16.66-16.53.73-37.1.68-74.22.05-111.32-.2-11.84,4.01-15.05,15.31-14.77,27.38.68,54.78.22,82.18.23Z"/>
</svg>