<?xml version="1.0" encoding="UTF-8"?>
<svg id="Laag_1" xmlns="http://www.w3.org/2000/svg" viewBox="0 0 512 512">
  <defs>
    <style>
      .cls-1 {
        fill: #fff;
      }
    </style>
  </defs>
  <path class="cls-1" d="M255.94,431.29c-56.94.03-113.88,0-170.83.04-29.91.02-47.63-26.3-26.26-45.16,60.95-53.8,43.66-122.65,44.37-187.51.69-63.6,26.09-109.24,81.8-138.3,10.02-5.22,15.83-11.64,19.29-22.45C212.15,13.47,230.04,1.22,255.63.87c26.29-.37,43.05,14.39,51.28,37.45,3.95,11.08,9.8,16.7,19.52,21.82,54.48,28.7,82.04,73.84,81.24,135.84-.26,19.92,1.26,39.96-.32,59.76-3.64,45.84-.42,88.36,39.75,120.04,15.44,12.18,10.1,31.74,8.83,48.21-1.02,13.27-13.59,6.88-20.63,6.95-59.78.57-119.57.33-179.36.36Z"/>
  <path class="cls-1" d="M465.57,181.07c-17.3,3.76-25.61-1.08-26.99-20.85-2.95-42.19-21-78.83-51.5-107.87-24.79-23.6,6.72-29.23,12.68-41.52,9.18-18.94,18.69-1.14,25.06,5.18,38.44,38.09,58.23,85.2,66.46,138.29,3.51,22.7-2.49,32.05-25.71,26.77Z"/>
  <path class="cls-1" d="M46.28,180.63c-25.58,7.31-28.29-5.8-25.71-25.15C27.82,101.16,48.82,53.62,88.24,14.86c7.9-7.77,16.76-20.3,25.48-2.72,5.95,12.01,35.13,17.49,12.04,39.46-30.64,29.14-48.85,65.64-52.71,107.52-1.89,20.46-8.69,27.45-26.76,21.52Z"/>
  <path class="cls-1" d="M257.64,511.1c-14.05.55-26.07-4.68-36.13-13.89-8.61-7.88-16.67-18.8-13.56-29.71,3.78-13.23,17.9-5.87,27.33-6.51,16.96-1.15,34.11.51,51.06-.63,21.07-1.42,22.76,8.4,14.85,23.67-8.99,17.35-24.04,26.09-43.56,27.07Z"/>
</svg>