<?xml version="1.0" encoding="UTF-8"?>
<svg id="Laag_1" xmlns="http://www.w3.org/2000/svg" viewBox="0 0 512 512">
  <defs>
    <style>
      .cls-1 {
        fill: #fff;
      }
    </style>
  </defs>
  <path class="cls-1" d="M254.18,431.73c-56.13,0-112.26.02-168.39,0-30.1-.02-41.23-19.19-27.06-46.53.44-.84.84-1.84,1.55-2.38,59.28-45.06,45.77-110.42,43.98-170.2-2.13-71.28,21.48-124.35,87.16-155.24,10.74-5.05,11.44-14.02,14.99-22.36C215.37,13.95,230.52,1.18,253.98.08c24.64-1.16,43.22,10.09,51.75,32.46,5.94,15.57,15.64,23.58,29.4,31.48,47.05,27.03,73.71,67.32,73.66,123.06-.02,23.78,1.78,47.74-.45,71.31-4.32,45.63,2.35,86.46,40.09,117.42,14.83,12.17,10.44,29.49,10.02,45.22-.42,15.63-13.38,10.54-21.6,10.59-60.89.42-121.77.23-182.66.23v-.12Z"/>
  <path class="cls-1" d="M258.84,512c-14.45-.1-26.76-4.82-36.34-14.53-8.02-8.13-16.4-19.12-13.06-29.96,3.92-12.72,17.9-5.27,27.21-5.92,17.87-1.26,35.95.57,53.82-.66,20.91-1.44,18.95,8.01,12.6,21.78-8.91,19.32-24.57,27.62-44.24,29.29Z"/>
</svg>