<?xml version="1.0" encoding="UTF-8"?>
<svg id="Laag_1" xmlns="http://www.w3.org/2000/svg" viewBox="0 0 512 512">
  <defs>
    <style>
      .cls-1 {
        fill: #fff;
      }
    </style>
  </defs>
  <path class="cls-1" d="M252.43,101.34c9.99-30.28,24.4-57.84,51.08-78,45.3-34.21,121.17-28.93,161.76,12.78,42.75,43.93,45.89,117.92,8.75,163.31-32.27,39.44-72.81,54.38-121.84,44.71-18.28-3.61-22.61,1.56-20.86,18.37,1.05,10.1,1.14,20.56-.22,30.6-5.02,37.1,4.52,68.45,33.47,93.36,4.88,4.2,9.52,10.3,11.18,16.36,7.51,27.32.34,36.05-27.99,36.05-102.16-.02-204.32,0-306.49-.02-25.62,0-35.69-16.31-24.58-39.99,1.41-3.01,3.57-6.01,6.14-8.07,36.81-29.55,40.4-69.48,36.91-112.53-1.64-20.26.65-40.81.62-61.22-.07-50.29,25.32-84.74,67.41-108.71,8.81-5.02,17.42-8.52,20.8-20.17,6.63-22.86,23.28-36.44,47-35.77,24.32.69,41.3,13.99,47.68,38.73.79,3.07,2.91,5.83,4.59,8.62.31.52,1.45.54,4.58,1.57ZM380.18,72.76c0,36.29-.05,72.69.03,109.09.02,9.24-1.7,20.18,13.08,19.25,13.21-.83,10.35-11.33,10.4-19.21.24-35.68.08-71.37.03-107.06-.04-33.71-5.37-37.17-34.48-20.39-7.28,4.19-24.12,4.76-16.04,19.78,7.37,13.69,15.08-3.8,26.97-1.46Z"/>
  <path class="cls-1" d="M195.35,466.18c7.65-.01,15.37-.64,22.94.17,7.19.77,17.35-4.5,20.98,3.63,4.08,9.14-2.61,18.15-8.78,25-14.7,16.3-33.06,20.43-53.15,11.68-13.99-6.09-26.58-17.98-24.35-32.65,2.44-16.03,19.49-4.8,29.66-7.64,3.95-1.1,8.45-.18,12.71-.19Z"/>
</svg>