<?xml version="1.0" encoding="UTF-8"?>
<svg id="Laag_1" xmlns="http://www.w3.org/2000/svg" viewBox="0 0 512 512">
  <defs>
    <style>
      .cls-1 {
        fill: #fff;
      }
    </style>
  </defs>
  <path class="cls-1" d="M256.64,449c-64.54,0-129.09.29-193.63-.1-42.34-.26-59.82-17.6-59.94-59.4-.24-88.36-.19-176.72.17-265.07.18-43.81,17.72-61.34,61.47-61.4,127.09-.19,254.19-.15,381.28.1,45.81.09,62.84,17.33,62.93,62.91.17,87.37.22,174.75.07,262.12-.07,42.16-17.07,60.09-58.73,60.46-64.54.58-129.08.15-193.63.15v.23ZM321.14,279.75v-.13c35.7,0,71.43-.93,107.08.39,18.35.68,18.37-9.08,17.69-22.01-.65-12.37,3.76-25.68-17.78-25.39-70.39.95-140.81.85-211.2-.08-21.19-.28-17.71,12.75-18.16,25.5-.47,13.15.09,22.78,18.27,22.09,34.66-1.31,69.4-.38,104.1-.38ZM189.91,383.44v-.14c34.64,0,69.32-1.08,103.89.4,21.05.9,18.13-11.75,18.48-24.71.36-13.05.13-22.19-18.06-21.92-69.26,1.02-138.54,1.06-207.8,0-18.67-.29-20.42,7.85-20.38,22.94.04,14.79.71,24.52,19.97,23.8,34.59-1.29,69.26-.37,103.89-.37ZM407.04,383.95c6.3,0,10.3-.44,14.18.07,18.33,2.42,24.88-3.33,25.31-23.74.47-22.55-9.74-23.9-26.36-22.35-6.85.64-14.05,1.28-20.67-.11-25.99-5.44-28.78,9.19-27.83,29.52,1.5,31.96,26.05,9.17,35.36,16.6ZM105.35,233.13c-6.22,0-10.22.29-14.15-.05-15.68-1.38-25.52.43-25.36,21.39.15,20.07,6.05,27.16,25.43,24.45,6.81-.95,14.09-1.31,20.77.03,26.87,5.37,28.96-10,27.39-30.43-2.27-29.51-25.09-8.32-34.07-15.39Z"/>
</svg>