<?xml version="1.0" encoding="UTF-8"?>
<svg id="Laag_1" xmlns="http://www.w3.org/2000/svg" viewBox="0 0 512 512">
  <defs>
    <style>
      .cls-1 {
        fill: #fff;
      }
    </style>
  </defs>
  <path class="cls-1" d="M357.09,333.96q0-55.29-55.92-55.25c-8.34,0-16.68-.11-25.02.1-15.93.41-29.7,2.59-29.69-22.66,0-24.8,13.94-21.16,28.54-21.16,22.24-.01,44.48-.34,66.71.08,11.46.21,16.04-3.48,15.57-15.86-1-25.9.75-51.93-.72-77.79-1.02-18.04,8.13-19.04,21.9-18.83,13.2.2,23.74-.17,22.49,18.44-1.42,21.22,1.07,42.72-.76,63.87-2,23.11,3.35,34.15,29.55,30.83,20.98-2.65,42.61.32,63.85-.92,20.53-1.2,15.7,13.24,16.56,24.16.95,12,.11,21.46-17.15,20.35-24.92-1.6-50.03.13-75.02-.78-13.12-.48-18.1,3.51-17.66,17.07.85,25.91-.99,51.96.67,77.79,1.25,19.41-10,17.44-22.51,17.84-13.47.43-23.78-.02-21.69-18.39,1.46-12.8.28-25.91.28-38.88Z"/>
  <path class="cls-1" d="M157.06,165.26c-45.26,0-90.55-.8-135.78.41-17.24.46-19.92-6.54-19.34-21.2.54-13.72-1.05-24.04,19.37-23.78,91.45,1.16,182.94,1.06,274.4.07,19.01-.2,17.87,9.54,17.54,22.21-.32,12.18,1.99,23.24-17.55,22.64-46.17-1.41-92.41-.45-138.63-.45v.09Z"/>
  <path class="cls-1" d="M111.5,362.04c-30.53,0-61.1-.99-91.57.36-18.66.83-17.84-9.57-18.29-22.53-.5-14.25,1.74-22.08,19.09-21.81,59.19.93,118.43,1.26,177.61-.06,21.07-.47,17.85,11.54,19.09,24.6,1.53,16.12-4.11,20.53-19.91,19.81-28.62-1.3-57.34-.37-86.02-.38Z"/>
  <path class="cls-1" d="M109.63,264.15c-27.76.02-55.52-.22-83.27.13-13.62.17-25.96,1.54-24.47-19.09,1.14-15.73,3.01-25.2,22.87-24.77,58.26,1.26,116.58,1.27,174.84,0,19.21-.41,17.28,9.69,17.76,22.34.54,14.2-1.39,22.48-18.93,21.72-29.55-1.29-59.2-.35-88.8-.33Z"/>
</svg>