<?xml version="1.0" encoding="UTF-8"?>
<svg id="Laag_1" xmlns="http://www.w3.org/2000/svg" viewBox="0 0 512 512">
  <defs>
    <style>
      .cls-1 {
        fill: #fff;
      }
    </style>
  </defs>
  <path class="cls-1" d="M502.42,184.86c2.65,11,5.37,21.99,6.96,33.21.31,2.16,0,4.44,1.06,6.48.52,6.87,1.04,13.73,1.55,20.6,0,6.61,0,13.22,0,19.84-.52,6.87-1.04,13.73-1.56,20.6-2.12,13.59-4.77,27.08-8.24,40.39-2.24,6.6-4.48,13.2-6.73,19.79-5.54,13.99-12.2,27.44-19.61,40.53-.5.67-1.04,1.32-1.48,2.03-14.4,23.36-32.02,43.94-52.93,61.73-10.89,9.26-22.65,17.26-34.63,24.98-13.02,7.38-26.46,13.9-40.36,19.45-7.1,2.3-14.2,4.6-21.3,6.9-7.12,1.67-14.25,3.34-21.37,5.01-.67.19-1.34.38-2,.57-.81.07-1.61.15-2.42.22-.48.15-.96.3-1.44.45-4.17.53-8.34,1.06-12.5,1.6-6.62.49-13.25.97-19.87,1.46-6.86,0-13.72,0-20.57,0-6.87-.54-13.73-1.08-20.6-1.62-3.48-.58-6.95-1.17-10.43-1.73-9.87-1.59-19.51-4.17-29.21-6.51-6.89-2.35-13.78-4.7-20.67-7.04-13.66-5.46-26.77-12.06-39.55-19.31-3.46-2.19-6.93-4.38-10.39-6.56-3.69-2.64-7.38-5.27-11.06-7.91-13.13-10.09-25.21-21.33-36.64-33.29-1.04-1.2-2.08-2.41-3.12-3.61-4.38-5.41-8.76-10.81-13.13-16.22-2.22-3.18-4.44-6.36-6.67-9.54-2.35-3.71-4.71-7.42-7.06-11.12-7.47-12.98-14.08-26.39-19.58-40.33-2.4-7.12-4.8-14.23-7.2-21.35-2.14-9.84-4.88-19.55-6.27-29.54-.44-3.13-.89-6.26-1.34-9.39-.63-7.66-1.26-15.33-1.9-22.99,0-5.04,0-10.08-.01-15.13.64-7.65,1.27-15.3,1.91-22.95,1.55-13.7,4.51-27.12,8.11-40.41,2.21-6.63,4.43-13.25,6.64-19.88,5.33-14.01,12.15-27.31,19.42-40.39,2.17-3.43,4.35-6.87,6.52-10.3,2.23-3.19,4.46-6.37,6.68-9.56,4.65-5.83,9.31-11.65,13.96-17.48.72-.78,1.44-1.56,2.17-2.34,6.11-6.15,12.23-12.3,18.34-18.45,1.25-.73,2.28-1.69,3.11-2.88,5.37-4.36,10.73-8.71,16.1-13.07,2.91-2.05,5.81-4.11,8.72-6.16,4.16-2.68,8.33-5.36,12.49-8.05,12.82-7.32,25.96-14.01,39.73-19.39,6.87-2.38,13.74-4.75,20.62-7.13,10.65-2.52,21.22-5.44,32.1-6.9,2.78-.37,5.56-.84,8.33-1.26,9.82-1.25,19.73-1.22,29.59-2.01,1.36,0,2.71,0,4.07,0,8.88.86,17.83.63,26.68,1.85,13.68,1.47,27.04,4.55,40.38,7.78,6.63,2.16,13.26,4.33,19.89,6.49,14.13,5.78,27.89,12.32,41.18,19.83,13.63,8.68,26.78,18.03,38.99,28.64.27.24.54.48.82.73,8.68,8.24,17.15,16.67,24.91,25.81,9.25,10.89,17.21,22.69,24.93,34.67,7.18,12.81,13.53,26.01,19.11,39.59,2.26,6.85,4.52,13.71,6.78,20.56ZM455.33,143.6l.02.03c-2.15-4.79-4.96-9.17-8.09-13.37-1.1-2.4-2.63-4.51-4.39-6.47-4.54-7.1-9.8-13.63-15.56-19.77-.23-.26-.47-.52-.7-.78-6.01-7.22-12.71-13.76-19.91-19.79,0,0-.04-.03-.04-.03-6.37-5.97-13.24-11.32-20.54-16.11-2.08-1.73-4.29-3.27-6.73-4.47-4.14-3.03-8.58-5.57-13.14-7.92-6.6-3.79-13.34-7.32-20.52-9.91-1.59-1.01-3.26-1.83-5.15-2.09-4.47-2.26-9.16-3.91-14.02-5.13-6.67-2.61-13.6-4.32-20.6-5.74-5.98-1.49-11.99-2.77-18.16-3.17-7.61-1.44-15.27-2.18-23.02-2.05-6.61-.51-13.23-.34-19.84.05-6.93.02-13.8.66-20.6,2.02-6.76.52-13.38,1.74-19.88,3.69-6.83,1.03-13.34,3.21-19.85,5.4-3.76,1.17-7.56,2.24-11.06,4.11-3.69,1.01-7.15,2.57-10.5,4.38-7.11,2.84-13.94,6.22-20.35,10.42-2.97,1.23-5.66,2.91-8.19,4.87-3.88,2.17-7.64,4.52-11.01,7.44-6.37,4.12-12.27,8.84-17.76,14.08-.66.56-1.32,1.12-1.98,1.67l-.67.65-.06.05c-6.3,5.38-12.15,11.22-17.47,17.58-.82.94-1.64,1.89-2.46,2.83-5.17,5.49-9.74,11.45-13.87,17.76-2.56,3.19-4.88,6.54-6.71,10.2-2.35,2.96-4.15,6.24-5.77,9.64-3.81,6.27-7.18,12.75-9.74,19.64-6.35,13.21-10.66,27.1-13.74,41.39-1.58,6.07-2.71,12.23-3.36,18.47-1.07,7.28-2.17,14.56-1.86,21.96-.75,6.61-.71,13.23,0,19.84-.13,7.5.65,14.91,2.05,22.26.39,6.43,1.91,12.65,3.33,18.9,3.22,13.96,7.38,27.6,13.65,40.53,2.59,6.92,6.01,13.43,9.78,19.76,1.4,2.87,2.9,5.68,4.93,8.17,1.33,3.17,3.44,5.8,5.49,8.63,2.52-5.8,4.9-11.25,7.27-16.71,7.46-14.35,16.21-27.86,26.32-40.49,1.07-.73,1.87-1.7,2.39-2.89,5.51-5.68,11.03-11.36,16.54-17.04,1.51-.91,2.77-2.11,3.85-3.49,7.09-5.47,14.19-10.95,21.28-16.42.5.12.77-.12.91-.56,6.32-3.69,12.64-7.38,18.96-11.08,8.17-3.66,16.21-7.62,24.69-10.57,2.11-.74,3.67-.79,5.66.4,9.09,5.41,18.55,10.01,28.91,12.5,6.76,2.36,13.71,3.8,20.87,4.21,6.82,1.37,13.7.96,20.57.69,6.75-.01,13.4-.87,19.91-2.68,7.15-1.07,13.91-3.39,20.53-6.22,5.12-1.93,10.1-4.16,14.69-7.18,1.73-.97,3.46-1.94,5.18-2.92,2.1.96,4.2,1.9,6.51,2.24,4.68,2,9.36,4,14.04,5.99,6.64,3.59,13.28,7.19,19.91,10.78,1.97,1.25,3.94,2.51,5.91,3.76l13.96,10.04c4.15,3.52,8.29,7.05,12.44,10.57,2.72,2.65,5.44,5.31,8.16,7.96,3.6,3.98,7.21,7.97,10.81,11.95,3,3.9,6,7.8,9,11.7,1.81,2.69,3.62,5.39,5.43,8.08.17.2.33.41.5.61l.03.08c5.96,9.92,11.53,20.06,16.32,31.24,2.35-4.19,4.37-7.77,6.38-11.36,4.04-6.55,7.47-13.4,10.25-20.57.81-1.12,1.39-2.33,1.53-3.73,2.58-5.15,4.59-10.51,5.99-16.09,2.6-6.43,4.27-13.13,5.66-19.9,1.76-6.76,3.16-13.59,3.7-20.57,1.5-7.27,1.66-14.67,2.08-22.04.36-5.65.34-11.29.01-16.94-.48-7.13-.42-14.3-2.03-21.32-.43-7-1.68-13.86-3.62-20.59-1.23-7.31-3.23-14.41-5.9-21.32-1.19-5.1-3.23-9.89-5.3-14.67-.48-1.57-.93-3.16-2.03-4.45-2.53-6.95-5.93-13.48-9.69-19.84.06-.45-.15-.71-.58-.82Z"/>
  <path class="cls-1" d="M285.42,67.74c7.16,2,13.87,5.13,20.57,8.28,3.85,2.48,7.7,4.96,11.55,7.44,2.78,2.38,5.55,4.76,8.33,7.14,4.38,4.54,8.5,9.3,12.42,14.24,2.44,4,4.88,8,7.32,12,1.21,2.65,2.43,5.31,3.64,7.96,2.11,6.2,4.01,12.47,5.39,18.88,1.04,6.83,1.51,13.7,1.48,20.61-.18,6.42-1.46,12.7-2.37,19.03-2.15,7.31-4.57,14.53-7.88,21.42-.18.18-.25.39-.2.64-3.93,6.71-8.15,13.22-13.09,19.24,0,0-.07.09-.07.09-.19.2-.38.4-.57.6-2.05,2.16-4.11,4.32-6.16,6.49-5.59,4.86-11.56,9.22-17.73,13.31-1.13.15-2.01.76-2.8,1.54-6.45,3.12-13.1,5.72-19.86,8.08-6.82,1.28-13.59,2.87-20.56,3.21-6.65.23-13.28-.03-19.89-.85-7.04-1.02-13.79-3.16-20.57-5.21-7.63-3.44-15.09-7.17-21.91-12.09-12.87-9.29-22.61-21.25-30.16-35.09-3.7-8.6-7.18-17.27-8.55-26.61-.56-3.85-.95-7.73-1.42-11.6-.11-7.64.05-15.26,1.42-22.8.12-.94.23-1.89.35-2.83.42-.44.68-.92.52-1.55.05-.49.09-.99.14-1.48,1.6-4.66,3.19-9.32,4.79-13.98,3.17-7.22,7.23-13.95,11.55-20.53,1.42-1.73,2.84-3.47,4.26-5.2,4.51-5.08,9.52-9.63,14.73-13.98l5.11-3.68c6.16-3.71,12.42-7.22,19.14-9.83,20.06-7.44,40.42-8.34,61.08-2.85Z"/>
</svg>