<?xml version="1.0" encoding="UTF-8"?>
<svg id="Laag_1" xmlns="http://www.w3.org/2000/svg" viewBox="0 0 512 512">
  <defs>
    <style>
      .cls-1 {
        fill: #fff;
      }
    </style>
  </defs>
  <path class="cls-1" d="M347.29,0C357.53,0,367.77,0,378.01,0c.58.5,1.1,1.33,1.75,1.45,42.25,7.68,68.11,32.8,79.08,73.97.58,2.18-.36,5.32,2.79,6.49v30.72c-2.41.12-2.35,2.2-2.68,3.7-7.23,32.17-26.58,54.38-55.86,68.67-9.63,4.7-18.93,10.08-29.37,15.68,10.7,4.51,20.44,8.34,29.95,12.66,28.31,12.85,46.63,34.29,54.85,64.36.68,2.49-.12,5.82,3.11,7.3v32.43c-1.3.32-1.62,1.3-1.87,2.47-7.18,33.19-27.06,55.79-57.18,70.78-79.23,39.43-154.62,86.36-236.16,121.31h-34.13c-2-2.94-5.43-2.53-8.26-3.29-48.25-12.95-78.92-62.1-69.11-110.95,6-29.91,22.35-52.25,49.11-66.91,10.94-5.99,21.94-11.87,34.23-18.51-10.54-4.35-19.42-7.92-28.22-11.67-29-12.37-47.55-33.94-56.31-64.12-.65-2.24.07-5.36-3.35-6.13v-35.84c3.1-1.09,2.54-4.11,3.14-6.37,7.31-27.61,23.6-48.23,48.69-61.6,60.58-32.26,121.33-64.22,181.95-96.4C304.79,19.25,325.12,7.71,347.29,0ZM204.71,324.7c43.15-22.9,85.16-45.18,128.24-68.04-43.1-22.86-85.25-45.22-128.24-68.02v136.06Z"/>
</svg>