<?xml version="1.0" encoding="UTF-8"?>
<svg id="Laag_1" xmlns="http://www.w3.org/2000/svg" viewBox="0 0 512 512">
  <defs>
    <style>
      .cls-1 {
        fill: #fff;
      }
    </style>
  </defs>
  <path class="cls-1" d="M124.36,436.49c-8.61,0-17.22.02-25.8.03-9.61-2.25-19.25-2.24-28.89.05-3.99-.09-7.97-.18-11.94-.26,4.99-20.86,21.19-37.56,22.26-59.87,70.19-.4,140.38-.74,210.57-1.23,53.56-.38,107.12-.95,160.68-1.44,5.06-77.58,3.29-155.19.9-232.81-.43-4.68-2.77-7.59-7.6-8.21-8.18-.63-16.36-1.79-24.54-1.8-98.86-.13-197.71-.23-296.57.05-16.47.05-33.1-2.42-49.46,1.66-2.8,1.03-5.61,2.06-8.41,3.09-3.58,35.54-2.46,71.1-.71,106.67-.25,4.05-.5,8.1-.75,12.15-7.9-3.97-10.26-12.52-15.49-18.69-13.02-15.34-24.74-32.4-46.67-36.33C1.37,161.76,1.22,123.93.02,86.14c-.49-15.3,9.56-12.39,18.13-12.4,76.5-.12,153-.13,229.5-.15,81.8-.01,163.6.17,245.4-.18,12.06-.05,19.01.31,18.89,16.35-.8,106.78-.88,213.57.06,320.35.18,20.73-4.79,30.75-26.72,26.44-34.75-.5-69.54-1.47-104.32-1.39-85.53.19-171.07.86-256.6,1.34Z"/>
  <path class="cls-1" d="M1.94,199.57c21.92,3.92,33.65,20.99,46.67,36.33,5.23,6.17,7.59,14.72,15.49,18.67.33,34.51,1.32,69.06.63,103.57-.24,12.2,2.04,18.93,15.27,18.3-1.07,22.31-17.27,39.01-22.26,59.87-15.87-.18-31.7,3.83-47.58.18,7.21-4.17,17.87,3.44,23.33-8.88,12.35-27.86,25.72-55.6,21.56-86.95-4.96-37.33-15.33-72.38-54.5-89.31.47-17.26.93-34.53,1.4-51.79Z"/>
  <path class="cls-1" d="M.54,251.36c39.17,16.93,49.54,51.98,54.5,89.31,4.17,31.35-9.2,59.09-21.56,86.95-5.46,12.32-16.12,4.71-23.33,8.88-8.91.79-9.73-4.3-8.1-11.16,30.73-21.85,35.05-99.76.09-125.8-.53-16.06-1.07-32.11-1.6-48.17Z"/>
  <path class="cls-1" d="M2.14,299.53c34.95,26.04,30.64,103.94-.09,125.8-2.54-41.95-2.65-83.87.09-125.8Z"/>
  <path class="cls-1" d="M124.36,436.49c85.53-.48,171.07-1.15,256.6-1.34,34.78-.08,69.57.9,104.32,1.39-30.22.55-60.42,1.63-90.61,1.53-90.11-.28-180.21-1.03-270.31-1.59Z"/>
  <path class="cls-1" d="M69.67,436.57c9.64-2.28,19.28-2.3,28.89-.05-9.65,2.74-19.27,2.75-28.89.05Z"/>
  <path class="cls-1" d="M444.54,132.75c-82.89.47-165.78,1.17-248.67,1.31-40.65.07-81.3-.9-121.92-1.39,16.38-4.08,33.01-1.61,49.48-1.66,98.86-.28,197.71-.18,296.57-.05,8.18.01,16.36,1.17,24.54,1.8Z"/>
  <path class="cls-1" d="M451.24,373.76c-.48-77.62-2.26-155.25.9-232.83,2.4,77.64,4.16,155.25-.9,232.83Z"/>
  <path class="cls-1" d="M65.56,135.76c1.25,35.59,2.26,71.18-.71,106.71-1.75-35.6-2.87-71.17.71-106.71Z"/>
</svg>