<?xml version="1.0" encoding="UTF-8"?>
<svg id="Laag_1" xmlns="http://www.w3.org/2000/svg" viewBox="0 0 512 512">
  <defs>
    <style>
      .cls-1 {
        fill: #fff;
      }
    </style>
  </defs>
  <path class="cls-1" d="M257.17,0c141.41.64,255.01,114.83,255.08,256.42.08,141.91-115.94,256.43-258.92,255.57C112.88,511.15-1.68,394.7-.24,254.24,1.22,112.62,115.89-.64,257.17,0ZM256.01,478.39c126.46-1.36,224.26-100.52,222.91-226.02-1.31-122.47-102.72-220.32-227.13-219.16-120.77,1.13-220.98,103.92-219.01,224.67,2,122.78,102.25,221.81,223.22,220.52Z"/>
  <path class="cls-1" d="M105.12,406.54c31.06-67.76,59-128.39,86.59-189.18,4.73-10.43,10.02-19.03,21.32-24.09,62.54-28.01,124.81-56.63,193-87.69-20.57,45.7-39.03,86.44-57.25,127.29q-35.49,79.56-114.44,115.03c-41.11,18.48-82.09,37.24-129.21,58.64ZM255,220.54c-18.54.46-35.49,18.36-33.87,37.01,1.79,20.62,14.31,31.93,34.46,33.29,17.99,1.21,36.2-17.42,36.26-35.31.06-17.14-19.2-35.42-36.85-34.99Z"/>
</svg>