<?xml version="1.0" encoding="UTF-8"?>
<svg id="Laag_1" xmlns="http://www.w3.org/2000/svg" viewBox="0 0 512 512">
  <defs>
    <style>
      .cls-1 {
        fill: #fff;
      }
    </style>
  </defs>
  <path class="cls-1" d="M1.69,511.99c0-170.58-.02-330.33.08-490.08,0-4.2,1.21-8.39,2.84-18.92,124.24,84.37,245.41,166.65,372.38,252.88C251.76,341.33,130.43,424.13,1.69,511.99Z"/>
  <path class="cls-1" d="M413.28,251.39c.07-71.42,2.53-142.97-.9-214.23-1.91-39.5,18.96-39.14,45.26-35.73,21.87,2.83,53.46-16.1,52.57,32.91-2.68,147.46-2.41,295.02.09,442.49.79,46.45-28.26,32.9-51.82,34.28-25.7,1.51-48.09,4.17-46.24-36.17,3.41-74.37.97-149.01,1.04-223.54Z"/>
</svg>