<?xml version="1.0" encoding="UTF-8"?>
<svg id="Laag_1" xmlns="http://www.w3.org/2000/svg" viewBox="0 0 512 512">
  <defs>
    <style>
      .cls-1 {
        fill: #fff;
      }
    </style>
  </defs>
  <path class="cls-1" d="M261.55,29.37v466.51c-40.68-45.2-78.45-84.71-113.16-126.74-18-21.8-37.18-29.53-65.2-28.9-79.57,1.78-79.59.55-79.6-80.1,0-24.32.89-48.68-.31-72.95-.81-16.47,2.87-25.94,21.48-23.12,2.15.33,4.5-.54,6.61-.12,70.2,13.83,118.59-17.77,160.06-71.33,19.55-25.25,47.92-43.66,70.11-63.25Z"/>
  <path class="cls-1" d="M508.74,250.07c-1.52,72.34-22.61,136.72-76.9,187.5-17.15,16.04-36.7,28.13-58.94,35.8-48.46,16.7-54.08,12.1-51.93-38.23.58-13.62,4.5-18.06,17.91-21.47,76.14-19.35,121.46-81.54,121.45-164.13-.01-83.23-44.02-143.02-121.44-164.47-36.55-10.12-14.14-38.74-15.79-57.63-1.6-18.33,18.32-9.42,28.05-7.26,75.78,16.82,117.54,69.76,142.86,138.61,10.75,29.21,15.45,59.87,14.72,91.27Z"/>
  <path class="cls-1" d="M321.29,247.81c0-31.97.53-63.96-.22-95.91-.36-15.38,4.62-20.53,19.04-14.01,8.95,4.05,18.68,7.26,26.38,13.08,57.48,43.48,56.4,156.57-1.68,198.85-11.7,8.52-25.84,17.93-39.31,11.38-10.17-4.95-3.64-20.2-3.95-30.72-.81-27.54-.27-55.12-.27-82.68Z"/>
</svg>