<?xml version="1.0" encoding="UTF-8"?>
<svg id="Laag_1" xmlns="http://www.w3.org/2000/svg" viewBox="0 0 512 512">
  <defs>
    <style>
      .cls-1 {
        fill: #fff;
      }
    </style>
  </defs>
  <path class="cls-1" d="M401.44,207.58c.09,34.83-6.16,68.48-24.55,97.83-11.6,18.53-10.46,30.02,5.62,45.49,40.06,38.54,77.84,79.58,116.92,119.21,10.33,10.47,17.54,17.06,2.62,32.07-14.74,14.83-21.88,11.69-34.15-1.46-37.28-39.95-76.2-78.28-113.4-118.31-13.45-14.48-21.87-17.28-40.08-4.2-96.51,69.31-230.79,37.04-287.79-67.1C-31.45,204.97,8.74,73.6,115.5,20.63,246.72-44.48,401.32,56.58,401.44,207.58ZM201.65,370.24c85.11.58,155.69-71.2,157.29-159.98,1.6-88.79-69.58-164.01-156.03-164.9-86.99-.89-158.9,71-160.55,160.5-1.66,90.41,69.41,163.76,159.29,164.37Z"/>
</svg>